<svg id="Layer_5" enable-background="new 0 0 64 64" height="512" viewBox="0 0 64 64" width="512" xmlns="http://www.w3.org/2000/svg" xmlns:xlink="http://www.w3.org/1999/xlink"><linearGradient id="SVGID_1_" gradientUnits="userSpaceOnUse" x1="32" x2="32" y1="63" y2="1"><stop offset="0" stop-color="#9f2fff"/><stop offset="1" stop-color="#0bb1d3"/></linearGradient><path d="m7 1v6h-1c-2.757 0-5 2.243-5 5v20c0 2.757 2.243 5 5 5h1v26h56v-49.414l-12.586-12.586zm44 3.414 8.586 8.586h-8.586zm-38 10.586v-12h2v12zm-2-12v12h-2v-12zm-5 6h1v6h-1c-1.654 0-3-1.346-3-3s1.346-3 3-3zm-3 23v-16.002c.836.628 1.875 1.002 3 1.002h32c1.654 0 3 1.346 3 3v12c0 1.654-1.346 3-3 3h-32c-1.654 0-3-1.346-3-3zm12 5v24h-2v-24zm-6 0h2v24h-2zm8 24v-24h21c2.757 0 5-2.243 5-5v-12c0-2.757-2.243-5-5-5h-21v-12h32v12h12v46zm-2-42h6v2h-2v9c0 1.654-1.346 3-3 3s-3-1.346-3-3v-1h2v1c0 .551.448 1 1 1s1-.449 1-1v-9h-2zm14 4v-.094c0-1.051-.854-1.906-1.905-1.906h-.189c-1.052 0-1.906.855-1.906 1.906 0 .821.523 1.548 1.304 1.808l2.025.676c1.598.532 2.671 2.021 2.671 3.704 0 2.154-1.752 3.906-3.905 3.906h-.189c-2.154 0-3.906-1.752-3.906-3.906v-1.094h2v1.094c0 1.051.854 1.906 1.905 1.906h.189c1.052 0 1.906-.855 1.906-1.906 0-.821-.523-1.548-1.304-1.808l-2.025-.676c-1.598-.532-2.671-2.021-2.671-3.704 0-2.154 1.752-3.906 3.905-3.906h.189c2.154 0 3.906 1.752 3.906 3.906zm28 25v2c-1.103 0-2 .897-2 2v3c0 2.206-1.794 4-4 4h-2v-2h2c1.103 0 2-.897 2-2v-3c0-1.2.542-2.266 1.382-3-.84-.734-1.382-1.8-1.382-3v-3c0-1.103-.897-2-2-2h-2v-2h2c2.206 0 4 1.794 4 4v3c0 1.103.897 2 2 2zm-24-9h2v2h-2c-1.103 0-2 .897-2 2v3c0 1.2-.542 2.266-1.382 3 .84.734 1.382 1.8 1.382 3v3c0 1.103.897 2 2 2h2v2h-2c-2.206 0-4-1.794-4-4v-3c0-1.103-.897-2-2-2v-2c1.103 0 2-.897 2-2v-3c0-2.206 1.794-4 4-4zm9 0c-1.654 0-3 1.346-3 3s1.346 3 3 3 3-1.346 3-3-1.346-3-3-3zm0 4c-.552 0-1-.449-1-1s.448-1 1-1 1 .449 1 1-.448 1-1 1zm0 4c-1.654 0-3 1.346-3 3s1.346 3 3 3c.352 0 .686-.072 1-.184v3.184c0 .551-.448 1-1 1s-1-.449-1-1h-2c0 1.654 1.346 3 3 3s3-1.346 3-3v-6c0-1.654-1.346-3-3-3zm0 4c-.552 0-1-.449-1-1s.448-1 1-1 1 .449 1 1-.448 1-1 1zm-23-40h6v-6h-6zm2-4h2v2h-2zm6 4h6v-6h-6zm2-4h2v2h-2zm6 4h6v-6h-6zm2-4h2v2h-2zm10 12h-2v-2h2zm2-2h10v2h-10zm-4 4h14v2h-14zm10 6h-10v-2h10zm2-2h2v2h-2zm-12 4h14v2h-14zm0 4h14v2h-14z" fill="url(#SVGID_1_)"/></svg>