<svg height="512pt" viewBox="-16 0 512 512.00113" width="512pt" xmlns="http://www.w3.org/2000/svg"><g fill="#272525"><path d="m262.84375 140.558594c-12.699219 12.671875-33.28125 12.671875-45.980469 0-12.695312-12.671875-12.695312-33.21875 0-45.890625 12.699219-12.671875 33.28125-12.671875 45.980469 0 12.695312 12.671875 12.695312 33.21875 0 45.890625zm0 0"/><path d="m307.257812 189.726562c-3.960937 0-7.921874-1.511718-10.9375-4.539062-6.03125-6.039062-6.019531-15.824219.019532-21.851562 12.238281-12.214844 18.976562-28.453126 18.976562-45.722657s-6.738281-33.507812-18.976562-45.722656c-6.039063-6.03125-6.050782-15.8125-.019532-21.855469 6.027344-6.039062 15.8125-6.050781 21.851563-.019531 18.089844 18.054687 28.050781 42.058594 28.050781 67.597656 0 25.535157-9.960937 49.542969-28.050781 67.597657-3.015625 3.011718-6.964844 4.515624-10.914063 4.515624zm0 0"/><path d="m342.210938 235.222656c-3.960938 0-7.921876-1.511718-10.9375-4.535156-6.03125-6.042969-6.019532-15.824219.019531-21.855469 24.414062-24.367187 37.863281-56.761719 37.863281-91.21875s-13.449219-66.851562-37.863281-91.21875c-6.039063-6.03125-6.050781-15.8125-.019531-21.855469 6.03125-6.039062 15.8125-6.050781 21.851562-.019531 30.265625 30.207031 46.9375 70.371094 46.933594 113.09375 0 42.722657-16.667969 82.890625-46.933594 113.097657-3.015625 3.007812-6.964844 4.511718-10.914062 4.511718zm0 0"/><path d="m172.371094 189.726562c-3.949219 0-7.898438-1.503906-10.917969-4.515624-18.089844-18.054688-28.050781-42.0625-28.050781-67.597657 0-25.539062 9.960937-49.542969 28.050781-67.597656 6.039063-6.03125 15.824219-6.023437 21.851563.019531 6.03125 6.039063 6.019531 15.824219-.019532 21.855469-12.238281 12.214844-18.976562 28.453125-18.976562 45.722656s6.738281 33.507813 18.976562 45.722657c6.039063 6.027343 6.050782 15.8125.019532 21.851562-3.015626 3.023438-6.976563 4.539062-10.933594 4.539062zm0 0"/><path d="m137.417969 235.222656c-3.953125 0-7.902344-1.503906-10.917969-4.515625-30.265625-30.207031-46.933594-70.371093-46.933594-113.09375 0-42.726562 16.667969-82.890625 46.933594-113.097656 6.039062-6.027344 15.824219-6.019531 21.851562.023437 6.03125 6.039063 6.019532 15.820313-.019531 21.851563-24.414062 24.367187-37.863281 56.761719-37.863281 91.21875s13.449219 66.855469 37.863281 91.222656c6.039063 6.03125 6.050781 15.8125.019531 21.855469-3.015624 3.023438-6.976562 4.535156-10.933593 4.535156zm0 0"/><path d="m443.480469 261.9375h-407.332031c-19.964844 0-36.148438 16.183594-36.148438 36.144531v177.769531c0 19.964844 16.183594 36.148438 36.148438 36.148438h407.328124c19.964844 0 36.148438-16.183594 36.148438-36.148438v-177.769531c0-19.960937-16.183594-36.144531-36.144531-36.144531zm-324.609375 203.683594h-56.933594c-8.53125 0-15.449219-6.917969-15.449219-15.453125v-126.398438c0-8.53125 6.917969-15.453125 15.449219-15.453125 8.535156 0 15.453125 6.917969 15.453125 15.453125v110.945313h41.480469c8.535156 0 15.453125 6.917968 15.453125 15.453125 0 8.535156-6.917969 15.453125-15.453125 15.453125zm63.328125-15.453125c0 8.535156-6.917969 15.453125-15.453125 15.453125s-15.453125-6.917969-15.453125-15.453125v-126.398438c0-8.53125 6.917969-15.453125 15.453125-15.453125s15.453125 6.917969 15.453125 15.453125zm130.015625-121.929688-38.160156 126.394531c-.003907.011719-.007813.023438-.011719.035157-4.144531 14.144531-25.273438 13.796875-29.5625 0-.003907-.011719-.007813-.023438-.011719-.035157l-38.160156-126.394531c-2.464844-8.171875 2.15625-16.792969 10.328125-19.261719 8.164062-2.464843 16.792969 2.15625 19.257812 10.328126l23.367188 77.394531 23.367187-77.394531c2.46875-8.171876 11.089844-12.796876 19.261719-10.328126 8.167969 2.46875 12.792969 11.089844 10.324219 19.261719zm95.066406 35.320313c8.535156 0 15.453125 6.917968 15.453125 15.453125 0 8.53125-6.917969 15.453125-15.453125 15.453125h-43.851562v40.25h52.175781c8.535156 0 15.453125 6.917968 15.453125 15.453125 0 8.535156-6.917969 15.453125-15.453125 15.453125h-67.628907c-8.535156 0-15.453124-6.917969-15.453124-15.453125v-126.398438c0-8.53125 6.917968-15.453125 15.453124-15.453125h69.710938c8.53125 0 15.453125 6.917969 15.453125 15.453125 0 8.535157-6.921875 15.453125-15.453125 15.453125h-54.261719v24.335938zm0 0"/></g></svg>