<svg height="512" viewBox="0 0 512 512" width="512" xmlns="http://www.w3.org/2000/svg"><g><g><ellipse cx="256" cy="256" fill="#006df0" rx="128" ry="240"/><ellipse cx="256" cy="256" fill="#006df0" rx="240" ry="128"/><ellipse cx="256" cy="256" fill="#78b9eb" rx="128" ry="240" transform="matrix(.707 -.707 .707 .707 -106.039 256)"/><ellipse cx="256" cy="256" fill="#78b9eb" rx="240" ry="128" transform="matrix(.707 -.707 .707 .707 -106.039 256)"/><path d="m240 328 8-72h-32l64-72-8 72h32z" fill="#ffda44"/></g><g><path d="m504 256c0-30.25-17.43-58.77-49.68-82.15 6.28-39.33-1.56-71.82-22.96-93.21s-53.88-29.24-93.21-22.96c-23.38-32.25-51.9-49.68-82.15-49.68s-58.77 17.43-82.15 49.68c-39.33-6.28-71.82 1.56-93.21 22.96s-29.24 53.88-22.96 93.21c-32.25 23.38-49.68 51.9-49.68 82.15s17.43 58.77 49.68 82.15c-6.28 39.33 1.56 71.82 22.96 93.21 16.61 16.62 39.92 25.06 67.94 25.06a160.728 160.728 0 0 0 25.27-2.1c23.38 32.25 51.9 49.68 82.15 49.68s58.77-17.43 82.15-49.68a160.728 160.728 0 0 0 25.27 2.1c28.01 0 51.33-8.44 67.94-25.06 21.4-21.39 29.24-53.88 22.96-93.21 32.25-23.38 49.68-51.9 49.68-82.15zm-140.6-184.44c23.7 0 43.12 6.86 56.65 20.39 16.38 16.38 22.97 41.39 19.46 72.17q-4.845-2.91-10.04-5.69a293.521 293.521 0 0 0 -54.04-21.86 293.521 293.521 0 0 0 -21.86-54.04q-2.775-5.2-5.69-10.04a137.381 137.381 0 0 1 15.52-.93zm27.97 160.16q8.235 12.08 15.24 24.28-6.99 12.195-15.24 24.28.63-12.03.63-24.28t-.63-24.28zm24.07 40.74a270.337 270.337 0 0 1 16.91 41.87q2.565 8.445 4.32 16.5-6.93 4.455-14.73 8.62a270.223 270.223 0 0 1 -41.56 17.65 402.512 402.512 0 0 0 8.32-46.13 403.188 403.188 0 0 0 26.74-38.51zm-26.74-71.43a402.512 402.512 0 0 0 -8.32-46.13 270.223 270.223 0 0 1 41.56 17.65q7.8 4.155 14.73 8.62-1.755 8.04-4.32 16.5a270.337 270.337 0 0 1 -16.91 41.87 403.188 403.188 0 0 0 -26.74-38.51zm-47.85 139.82a439.648 439.648 0 0 1 -36.25 32.49 441.989 441.989 0 0 1 -48.6 2.66 441.989 441.989 0 0 1 -48.6-2.66 439.648 439.648 0 0 1 -36.25-32.49 439.648 439.648 0 0 1 -32.49-36.25 445.307 445.307 0 0 1 0-97.2 445.639 445.639 0 0 1 68.74-68.74 445.307 445.307 0 0 1 97.2 0 439.648 439.648 0 0 1 36.25 32.49 439.648 439.648 0 0 1 32.49 36.25 441.989 441.989 0 0 1 2.66 48.6 441.989 441.989 0 0 1 -2.66 48.6 439.648 439.648 0 0 1 -32.49 36.25zm28.03-6.3q-2.7 14.37-6.38 27.95-13.56 3.675-27.95 6.38 8.955-8.055 17.62-16.71t16.71-17.62zm-88.6 56.82q-12.075 8.235-24.28 15.24-12.195-6.99-24.28-15.24 12.03.63 24.28.63t24.28-.63zm-102.83-22.49q-14.37-2.7-27.95-6.38-3.675-13.56-6.38-27.95 8.055 8.955 16.71 17.62t17.62 16.71zm-34.33-191.43q2.7-14.37 6.38-27.95 13.56-3.675 27.95-6.38-8.955 8.055-17.62 16.71t-16.71 17.62zm88.6-56.82q12.08-8.23 24.28-15.24 12.195 6.99 24.28 15.24-12.03-.63-24.28-.63t-24.28.63zm102.83 22.49q14.37 2.7 27.95 6.38 3.675 13.56 6.38 27.95-8.055-8.955-16.71-17.62t-17.62-16.71zm-3.72-67.79q4.455 6.93 8.62 14.73a270.223 270.223 0 0 1 17.65 41.56 402.512 402.512 0 0 0 -46.13-8.32 403.188 403.188 0 0 0 -38.51-26.74 270.337 270.337 0 0 1 41.87-16.91q8.445-2.565 16.5-4.32zm-74.83-51.33c23.16 0 45.51 13.02 64.8 37.27-3.67.92-7.37 1.93-11.13 3.08a294.062 294.062 0 0 0 -53.67 22.75 294.062 294.062 0 0 0 -53.67-22.75c-3.76-1.15-7.46-2.16-11.13-3.08 19.29-24.25 41.64-37.27 64.8-37.27zm-74.83 51.33q8.04 1.755 16.5 4.32a270.337 270.337 0 0 1 41.87 16.91 403.188 403.188 0 0 0 -38.51 26.74 402.512 402.512 0 0 0 -46.13 8.32 270.223 270.223 0 0 1 17.65-41.56q4.155-7.8 8.62-14.73zm-89.22 16.62c13.53-13.53 32.95-20.39 56.65-20.39a137.381 137.381 0 0 1 15.52.93q-2.91 4.845-5.69 10.04a293.521 293.521 0 0 0 -21.86 54.04 293.521 293.521 0 0 0 -54.04 21.86q-5.2 2.775-10.04 5.69c-3.51-30.78 3.08-55.79 19.46-72.17zm28.68 188.32q-8.23-12.06-15.24-24.27 6.99-12.195 15.24-24.27-.63 12.015-.63 24.27t.63 24.27zm2.67 30.7a402.512 402.512 0 0 0 8.32 46.13 270.223 270.223 0 0 1 -41.56-17.65q-7.8-4.155-14.73-8.62 1.755-8.04 4.32-16.5a270.337 270.337 0 0 1 16.91-41.87 403.188 403.188 0 0 0 26.74 38.51zm0-109.94a403.188 403.188 0 0 0 -26.74 38.51 270.337 270.337 0 0 1 -16.91-41.87q-2.565-8.445-4.32-16.5 6.93-4.455 14.73-8.62a270.223 270.223 0 0 1 41.56-17.65 402.512 402.512 0 0 0 -8.32 46.13zm-62.03 119.77c-24.25-19.29-37.27-41.64-37.27-64.8s13.02-45.51 37.27-64.8c.92 3.67 1.93 7.37 3.08 11.13a294.062 294.062 0 0 0 22.75 53.67 294.062 294.062 0 0 0 -22.75 53.67c-1.15 3.76-2.16 7.46-3.08 11.13zm30.68 99.25c-16.38-16.38-22.97-41.39-19.46-72.17q4.845 2.91 10.04 5.69a293.521 293.521 0 0 0 54.04 21.86 293.521 293.521 0 0 0 21.86 54.04q2.775 5.2 5.69 10.04c-30.78 3.51-55.79-3.08-72.17-19.46zm89.22 16.62q-4.455-6.93-8.62-14.73a270.223 270.223 0 0 1 -17.65-41.56 402.512 402.512 0 0 0 46.13 8.32 403.188 403.188 0 0 0 38.51 26.74 270.337 270.337 0 0 1 -41.87 16.91q-8.445 2.565-16.5 4.32zm74.83 51.33c-23.16 0-45.5-13.02-64.79-37.26 3.66-.92 7.37-1.94 11.12-3.09a294.062 294.062 0 0 0 53.67-22.75 294.062 294.062 0 0 0 53.67 22.75c3.76 1.15 7.46 2.17 11.12 3.09-19.29 24.24-41.63 37.26-64.79 37.26zm74.83-51.33q-8.04-1.755-16.5-4.32a270.337 270.337 0 0 1 -41.87-16.91 403.188 403.188 0 0 0 38.51-26.74 402.512 402.512 0 0 0 46.13-8.32 270.223 270.223 0 0 1 -17.65 41.56q-4.15 7.8-8.62 14.73zm89.22-16.62c-16.38 16.38-41.39 22.97-72.17 19.46q2.91-4.845 5.69-10.04a293.521 293.521 0 0 0 21.86-54.04 293.521 293.521 0 0 0 54.04-21.86q5.2-2.775 10.04-5.69c3.51 30.78-3.08 55.79-19.46 72.17zm30.68-99.25c-.92-3.67-1.93-7.37-3.08-11.13a294.062 294.062 0 0 0 -22.75-53.67 294.062 294.062 0 0 0 22.75-53.67c1.15-3.76 2.16-7.46 3.08-11.13 24.25 19.29 37.27 41.64 37.27 64.8s-13.02 45.51-37.27 64.8z"/><path d="m311.3 252.72a8.007 8.007 0 0 0 -7.3-4.72h-23.06l7.01-63.12a8 8 0 0 0 -13.93-6.19l-64 72a8 8 0 0 0 5.98 13.31h23.06l-7.01 63.12a7.986 7.986 0 0 0 4.7 8.19 7.88 7.88 0 0 0 3.25.69 8 8 0 0 0 5.98-2.69l64-72a8 8 0 0 0 1.32-8.59zm-60.57 51.17 5.22-47.01a8.007 8.007 0 0 0 -7.95-8.88h-14.19l35.46-39.89-5.22 47.01a8.007 8.007 0 0 0 7.95 8.88h14.19z"/></g></g></svg>